# xmcd
#
# Track frame offsets:
#	150
#	7670
#	13370
#	23645
#	33020
#	46145
#	59720
#	70070
#	90695
#	101420
#	109820
#	124070
#	141320
#	149870
#	164420
#	175370
#	188195
#	204620
#	212645
#	222470
#	233270
#	251720
#	263195
#	274370
#	285020
#	295370
#	315320
#	326195
#
# Disc length: 4516 seconds
#
# Revision: 2
# Processed by: cddbd v1.5.1PL0 Copyright (c) Steve Scherf et al.
# Submitted via: audiograbber 1.83.01
#
DISCID=a611a21c
DTITLE=Various Artist - Bluegrass Breakdown
DYEAR=1992
DGENRE=Bluegrass
TTITLE0=Lue And Byron Berline  - New Broom
TTITLE1=Lue And Byron Berline  - Old Logan
TTITLE2=Lue And Byron Berline  - Crazy Creek
TTITLE3=Lue And Byron Berline  - Dusty Miller
TTITLE4=The Stanley Brothers  - How Mountain Girls Can Love
TTITLE5=The Stanley Brothers  - A Man Of Constant Sorrow
TTITLE6=The Stanley Brothers  - Big Tildy
TTITLE7=The Stanley Brothers  - Orange Blossom Special
TTITLE8=Fiddling Arthur Smith  - Leather Britches
TTITLE9=Fiddling Arthur Smith  - Blackberry Blossom
TTITLE10=The Greenbriar Boys   - Levee Breakin' Blues
TTITLE11=The Greenbriar Boys   - At The End Of A Long Lonely Day
TTITLE12=The Dillards  - Old Joe Clark
TTITLE13=The Dillards  - Ground Hog
TTITLE14=The Dillards  - Banjo In The Hollow
TTITLE15=The Dillards  - Polly Vaughn
TTITLE16=The Dillards  - Dueling Banjos
TTITLE17=Clayton McMichen   - Alabama Jubilee
TTITLE18=Clayton McMichen   - Sourwood Mountain
TTITLE19=The New York City Ramblers   - You Better Get Right Little Darlin'
TTITLE20=The New York City Ramblers  - I'm Coming Back But I Dont Know When
TTITLE21=The New York City Ramblers  - Cedar Hill
TTITLE22=The New York City Ramblers  - Tell It To Me
TTITLE23=Bill Monroe And The Bluegrass Boys  - Muleskinner Blues
TTITLE24=Bill Monroe And The Bluegrass Boys  - Blue Moon Of Kentucky
TTITLE25=Bill Monroe And The Bluegrass Boys  - Walls Of Time
TTITLE26=Bill Monroe And The Bluegrass Boys  - Somebody Touched Me
TTITLE27=Bill Monroe And The Bluegrass Boys  - Bluegrass Breakdown
EXTD=
EXTT0=
EXTT1=
EXTT2=
EXTT3=
EXTT4=
EXTT5=
EXTT6=
EXTT7=
EXTT8=
EXTT9=
EXTT10=
EXTT11=
EXTT12=
EXTT13=
EXTT14=
EXTT15=
EXTT16=
EXTT17=
EXTT18=
EXTT19=
EXTT20=
EXTT21=
EXTT22=
EXTT23=
EXTT24=
EXTT25=
EXTT26=
EXTT27=
PLAYORDER=
